<mxfile host="app.diagrams.net" modified="2024-04-15T14:33:25.163Z" agent="Mozilla/5.0 (Windows NT 10.0; Win64; x64) AppleWebKit/537.36 (KHTML, like Gecko) Chrome/123.0.0.0 Safari/537.36" etag="bNDT4ZCw-FHUfx0M_R5B" version="24.2.2" type="github">
  <diagram name="Trang-1" id="0TaaNi0zSg2EqhKhIz6R">
    <mxGraphModel dx="1075" dy="435" grid="1" gridSize="10" guides="1" tooltips="1" connect="1" arrows="1" fold="1" page="1" pageScale="1" pageWidth="827" pageHeight="1169" math="0" shadow="0">
      <root>
        <mxCell id="0" />
        <mxCell id="1" parent="0" />
        <mxCell id="X1CAyQ7VDSfBso-I9JbY-1" value="&amp;lt;&amp;lt;boundary&amp;gt;&amp;gt;&lt;br&gt;&lt;b&gt;SubmitFormBoundary&lt;/b&gt;" style="swimlane;fontStyle=0;align=center;verticalAlign=top;childLayout=stackLayout;horizontal=1;startSize=55;horizontalStack=0;resizeParent=1;resizeParentMax=0;resizeLast=0;collapsible=0;marginBottom=0;html=1;whiteSpace=wrap;" vertex="1" parent="1">
          <mxGeometry x="80" y="160" width="140" height="90" as="geometry" />
        </mxCell>
        <mxCell id="X1CAyQ7VDSfBso-I9JbY-6" value="" style="line;strokeWidth=1;fillColor=none;align=left;verticalAlign=middle;spacingTop=-1;spacingLeft=3;spacingRight=3;rotatable=0;labelPosition=right;points=[];portConstraint=eastwest;" vertex="1" parent="X1CAyQ7VDSfBso-I9JbY-1">
          <mxGeometry y="55" width="140" height="8" as="geometry" />
        </mxCell>
        <mxCell id="X1CAyQ7VDSfBso-I9JbY-8" value="//Admin nhập thông tin()&lt;div&gt;&lt;br&gt;&lt;/div&gt;" style="text;html=1;strokeColor=none;fillColor=none;align=left;verticalAlign=middle;spacingLeft=4;spacingRight=4;overflow=hidden;rotatable=0;points=[[0,0.5],[1,0.5]];portConstraint=eastwest;whiteSpace=wrap;" vertex="1" parent="X1CAyQ7VDSfBso-I9JbY-1">
          <mxGeometry y="63" width="140" height="27" as="geometry" />
        </mxCell>
        <mxCell id="X1CAyQ7VDSfBso-I9JbY-9" value="&amp;lt;&amp;lt;control&amp;gt;&amp;gt;&lt;br&gt;&lt;b&gt;SentInfoController&lt;/b&gt;" style="swimlane;fontStyle=0;align=center;verticalAlign=top;childLayout=stackLayout;horizontal=1;startSize=55;horizontalStack=0;resizeParent=1;resizeParentMax=0;resizeLast=0;collapsible=0;marginBottom=0;html=1;whiteSpace=wrap;" vertex="1" parent="1">
          <mxGeometry x="280" y="160" width="140" height="100" as="geometry" />
        </mxCell>
        <mxCell id="X1CAyQ7VDSfBso-I9JbY-10" value="" style="line;strokeWidth=1;fillColor=none;align=left;verticalAlign=middle;spacingTop=-1;spacingLeft=3;spacingRight=3;rotatable=0;labelPosition=right;points=[];portConstraint=eastwest;" vertex="1" parent="X1CAyQ7VDSfBso-I9JbY-9">
          <mxGeometry y="55" width="140" height="8" as="geometry" />
        </mxCell>
        <mxCell id="X1CAyQ7VDSfBso-I9JbY-11" value="//kiểm tra định dạng thông tin()" style="text;html=1;strokeColor=none;fillColor=none;align=left;verticalAlign=middle;spacingLeft=4;spacingRight=4;overflow=hidden;rotatable=0;points=[[0,0.5],[1,0.5]];portConstraint=eastwest;whiteSpace=wrap;" vertex="1" parent="X1CAyQ7VDSfBso-I9JbY-9">
          <mxGeometry y="63" width="140" height="37" as="geometry" />
        </mxCell>
        <mxCell id="X1CAyQ7VDSfBso-I9JbY-13" value="&amp;lt;&amp;lt;boundary&amp;gt;&amp;gt;&lt;br&gt;&lt;b&gt;UserBoundary&lt;/b&gt;" style="swimlane;fontStyle=0;align=center;verticalAlign=top;childLayout=stackLayout;horizontal=1;startSize=55;horizontalStack=0;resizeParent=1;resizeParentMax=0;resizeLast=0;collapsible=0;marginBottom=0;html=1;whiteSpace=wrap;" vertex="1" parent="1">
          <mxGeometry x="480" y="160" width="140" height="100" as="geometry" />
        </mxCell>
        <mxCell id="X1CAyQ7VDSfBso-I9JbY-14" value="" style="line;strokeWidth=1;fillColor=none;align=left;verticalAlign=middle;spacingTop=-1;spacingLeft=3;spacingRight=3;rotatable=0;labelPosition=right;points=[];portConstraint=eastwest;" vertex="1" parent="X1CAyQ7VDSfBso-I9JbY-13">
          <mxGeometry y="55" width="140" height="8" as="geometry" />
        </mxCell>
        <mxCell id="X1CAyQ7VDSfBso-I9JbY-15" value="Gửi thông tin đến người dùng()" style="text;html=1;strokeColor=none;fillColor=none;align=left;verticalAlign=middle;spacingLeft=4;spacingRight=4;overflow=hidden;rotatable=0;points=[[0,0.5],[1,0.5]];portConstraint=eastwest;whiteSpace=wrap;" vertex="1" parent="X1CAyQ7VDSfBso-I9JbY-13">
          <mxGeometry y="63" width="140" height="37" as="geometry" />
        </mxCell>
        <mxCell id="X1CAyQ7VDSfBso-I9JbY-17" value="&amp;lt;&amp;lt;entity&amp;gt;&amp;gt;&lt;br&gt;&lt;b&gt;HistoryInfo&lt;/b&gt;&lt;div&gt;&lt;br/&gt;&lt;/div&gt;" style="swimlane;fontStyle=0;align=center;verticalAlign=top;childLayout=stackLayout;horizontal=1;startSize=55;horizontalStack=0;resizeParent=1;resizeParentMax=0;resizeLast=0;collapsible=0;marginBottom=0;html=1;whiteSpace=wrap;" vertex="1" parent="1">
          <mxGeometry x="280" y="320" width="140" height="83" as="geometry" />
        </mxCell>
        <mxCell id="X1CAyQ7VDSfBso-I9JbY-22" value="" style="line;strokeWidth=1;fillColor=none;align=left;verticalAlign=middle;spacingTop=-1;spacingLeft=3;spacingRight=3;rotatable=0;labelPosition=right;points=[];portConstraint=eastwest;" vertex="1" parent="X1CAyQ7VDSfBso-I9JbY-17">
          <mxGeometry y="55" width="140" height="8" as="geometry" />
        </mxCell>
        <mxCell id="X1CAyQ7VDSfBso-I9JbY-24" value="//cập nhật database()" style="text;html=1;strokeColor=none;fillColor=none;align=left;verticalAlign=middle;spacingLeft=4;spacingRight=4;overflow=hidden;rotatable=0;points=[[0,0.5],[1,0.5]];portConstraint=eastwest;whiteSpace=wrap;" vertex="1" parent="X1CAyQ7VDSfBso-I9JbY-17">
          <mxGeometry y="63" width="140" height="20" as="geometry" />
        </mxCell>
        <mxCell id="X1CAyQ7VDSfBso-I9JbY-27" value="" style="endArrow=none;html=1;rounded=0;entryX=0.002;entryY=0.397;entryDx=0;entryDy=0;entryPerimeter=0;" edge="1" parent="1" target="X1CAyQ7VDSfBso-I9JbY-13">
          <mxGeometry width="50" height="50" relative="1" as="geometry">
            <mxPoint x="420" y="200" as="sourcePoint" />
            <mxPoint x="289" y="210" as="targetPoint" />
          </mxGeometry>
        </mxCell>
        <mxCell id="X1CAyQ7VDSfBso-I9JbY-28" value="" style="endArrow=none;html=1;rounded=0;entryX=0.002;entryY=0.397;entryDx=0;entryDy=0;entryPerimeter=0;" edge="1" parent="1">
          <mxGeometry width="50" height="50" relative="1" as="geometry">
            <mxPoint x="220" y="200" as="sourcePoint" />
            <mxPoint x="280" y="200" as="targetPoint" />
          </mxGeometry>
        </mxCell>
        <mxCell id="X1CAyQ7VDSfBso-I9JbY-30" value="1" style="edgeLabel;html=1;align=center;verticalAlign=middle;resizable=0;points=[];" vertex="1" connectable="0" parent="X1CAyQ7VDSfBso-I9JbY-28">
          <mxGeometry x="-0.05" y="-2" relative="1" as="geometry">
            <mxPoint x="-18" y="-12" as="offset" />
          </mxGeometry>
        </mxCell>
        <mxCell id="X1CAyQ7VDSfBso-I9JbY-29" value="" style="endArrow=none;html=1;rounded=0;entryX=0.5;entryY=0;entryDx=0;entryDy=0;exitX=0.498;exitY=1.009;exitDx=0;exitDy=0;exitPerimeter=0;" edge="1" parent="1" source="X1CAyQ7VDSfBso-I9JbY-11" target="X1CAyQ7VDSfBso-I9JbY-17">
          <mxGeometry width="50" height="50" relative="1" as="geometry">
            <mxPoint x="440" y="220" as="sourcePoint" />
            <mxPoint x="500" y="220" as="targetPoint" />
          </mxGeometry>
        </mxCell>
        <mxCell id="X1CAyQ7VDSfBso-I9JbY-32" value="1" style="edgeLabel;html=1;align=center;verticalAlign=middle;resizable=0;points=[];" vertex="1" connectable="0" parent="1">
          <mxGeometry x="330.0033333333335" y="250" as="geometry">
            <mxPoint x="9" y="20" as="offset" />
          </mxGeometry>
        </mxCell>
        <mxCell id="X1CAyQ7VDSfBso-I9JbY-34" value="1" style="edgeLabel;html=1;align=center;verticalAlign=middle;resizable=0;points=[];" vertex="1" connectable="0" parent="1">
          <mxGeometry x="240.33333333333348" y="190" as="geometry">
            <mxPoint x="186" y="-6" as="offset" />
          </mxGeometry>
        </mxCell>
        <mxCell id="X1CAyQ7VDSfBso-I9JbY-35" value="1" style="edgeLabel;html=1;align=center;verticalAlign=middle;resizable=0;points=[];" vertex="1" connectable="0" parent="1">
          <mxGeometry x="280.0033333333335" y="220" as="geometry">
            <mxPoint x="186" y="-6" as="offset" />
          </mxGeometry>
        </mxCell>
        <mxCell id="X1CAyQ7VDSfBso-I9JbY-36" value="n" style="edgeLabel;html=1;align=center;verticalAlign=middle;resizable=0;points=[];" vertex="1" connectable="0" parent="1">
          <mxGeometry x="170.0033333333335" y="310" as="geometry">
            <mxPoint x="186" y="-6" as="offset" />
          </mxGeometry>
        </mxCell>
        <mxCell id="X1CAyQ7VDSfBso-I9JbY-37" value="1" style="edgeLabel;html=1;align=center;verticalAlign=middle;resizable=0;points=[];" vertex="1" connectable="0" parent="1">
          <mxGeometry x="80.00333333333347" y="220" as="geometry">
            <mxPoint x="186" y="-6" as="offset" />
          </mxGeometry>
        </mxCell>
      </root>
    </mxGraphModel>
  </diagram>
</mxfile>
